Coordinates
version=1
nRows=26
nColumns=24
inDegrees=yes

Units are S.I. units (second, meters, Newtons, ...)
Angles are in degrees.

endheader
time	pelvis_tilt	pelvis_list	pelvis_rotation	pelvis_tx	pelvis_ty	pelvis_tz	hip_flexion_r	hip_adduction_r	hip_rotation_r	knee_angle_r	ankle_angle_r	subtalar_angle_r	mtp_angle_r	hip_flexion_l	hip_adduction_l	hip_rotation_l	knee_angle_l	ankle_angle_l	subtalar_angle_l	mtp_angle_l	lumbar_extension	lumbar_bending	lumbar_rotation
      6.53500000	     13.42122782	      2.33537431	      1.00323031	      2.52003030	      0.94497199	     -0.24716542	      1.64888601	     -5.59171518	     -4.29672130	    -66.41520547	      6.29656703	      5.44780701	      0.00000000	    -10.61333044	      6.08472471	     11.38100294	    -10.31405394	     15.42082494	     -6.16588419	      0.00000000	    -25.75385988	     -2.39567144	     -0.17209683
      6.54000000	     13.44365361	      2.14024402	      1.35434806	      2.52542095	      0.94545836	     -0.24768363	      2.21834501	     -5.33483748	     -4.67613496	    -65.86391017	      7.57366997	      4.89308314	      0.00000000	    -11.10935985	      5.78414848	     11.56145453	    -10.08341164	     15.63539837	     -5.95273295	      0.00000000	    -25.82774224	     -2.01506342	     -0.60028657
      6.54500000	     13.47476552	      1.95224649	      1.71273994	      2.53079635	      0.94592322	     -0.24822913	      2.75838302	     -5.09762717	     -5.07726778	    -65.22203750	      8.78899948	      4.35065261	      0.00000000	    -11.60990541	      5.48652907	     11.70808760	     -9.85240388	     15.81619113	     -5.75234960	      0.00000000	    -25.91102364	     -1.63175412	     -1.01973146
      6.55000000	     13.49599261	      1.76305804	      2.05190264	      2.53615918	      0.94633025	     -0.24872323	      3.29898559	     -4.85566229	     -5.44682829	    -64.50072355	      9.92804208	      3.81987575	      0.00000000	    -12.09669586	      5.18489924	     11.83286314	     -9.61865896	     16.01295238	     -5.54308893	      0.00000000	    -25.98066134	     -1.25713679	     -1.42703522
      6.55500000	     13.48744366	      1.56885376	      2.35437577	      2.54151173	      0.94665290	     -0.24915330	      3.86644829	     -4.60379149	     -5.76397651	    -63.70677822	     10.98811315	      3.30205254	      0.00000000	    -12.54801689	      4.88184405	     11.92330794	     -9.38466479	     16.22731164	     -5.33283491	      0.00000000	    -26.01532113	     -0.89569153	     -1.78997159
      6.56000000	     13.51195789	      1.41631061	      2.71808809	      2.54683607	      0.94698072	     -0.24965057	      4.35924836	     -4.41020906	     -6.15503490	    -62.81883369	     11.99445449	      2.80871180	      0.00000000	    -13.02915150	      4.60366886	     12.04676181	     -9.15398487	     16.40427551	     -5.11075491	      0.00000000	    -26.09352758	     -0.55399994	     -2.22046867
      6.56500000	     13.50185160	      1.23983853	      3.01498346	      2.55218412	      0.94720764	     -0.25006209	      4.88801984	     -4.18420877	     -6.46114254	    -61.86610490	     12.91464338	      2.35457858	      0.00000000	    -13.47376507	      4.31482936	     12.10459952	     -8.91988596	     16.61324972	     -4.92589287	      0.00000000	    -26.12116807	     -0.20860527	     -2.58630406
      6.57000000	     13.48442437	      1.09377946	      3.32090589	      2.55750743	      0.94741222	     -0.25041902	      5.39808867	     -3.98820510	     -6.76465328	    -60.82876551	     13.78144688	      1.94657548	      0.00000000	    -13.90711260	      4.04678315	     12.14092805	     -8.68252318	     16.73855436	     -4.72586639	      0.00000000	    -26.15099506	      0.08967391	     -2.96471829
      6.57500000	     13.57324472	      0.99681378	      3.72808759	      2.56278098	      0.94766275	     -0.25091337	      5.74266648	     -3.85662655	     -7.17565426	    -59.69892814	     14.59775393	      1.54256531	      0.00000000	    -14.44921551	      3.79774745	     12.32936276	     -8.45435857	     16.93085584	     -4.50547164	      0.00000000	    -26.30414084	      0.39121516	     -3.45335726
      6.58000000	     13.59474458	      0.87048135	      4.03513059	      2.56808720	      0.94780293	     -0.25125963	      6.15959520	     -3.68006883	     -7.46028158	    -58.50298196	     15.34032961	      1.19990274	      0.00000000	    -14.92312165	      3.54090213	     12.38525839	     -8.21332391	     17.09842040	     -4.31918258	      0.00000000	    -26.37684592	      0.67891192	     -3.84036575
      6.58500000	     13.64185409	      0.76170810	      4.35144230	      2.57337604	      0.94792399	     -0.25161237	      6.51820409	     -3.52400698	     -7.74583136	    -57.22734570	     16.03928790	      0.93204592	      0.00000000	    -15.42207321	      3.29648428	     12.45346781	     -7.97379655	     17.25966169	     -4.16766874	      0.00000000	    -26.48180046	      0.95601473	     -4.25706664
      6.59000000	     13.64032458	      0.66632235	      4.64343346	      2.57866050	      0.94795451	     -0.25187674	      6.91053857	     -3.37286635	     -7.98058436	    -55.88473755	     16.68094137	      0.67799266	      0.00000000	    -15.86506677	      3.06746971	     12.50348947	     -7.73978980	     17.41232500	     -3.97255443	      0.00000000	    -26.53458389	      1.19120835	     -4.60550256
      6.59500000	     13.66279045	      0.57958680	      4.94412562	      2.58392931	      0.94796769	     -0.25215444	      7.24300458	     -3.23225386	     -8.21608991	    -54.45906218	     17.28274582	      0.49531301	      0.00000000	    -16.33043710	      2.84296402	     12.55180914	     -7.50920869	     17.56240301	     -3.81273041	      0.00000000	    -26.61765911	      1.42958213	     -4.98460533
      6.60000000	     13.62974781	      0.49712052	      5.16557605	      2.58922757	      0.94785112	     -0.25236941	      7.62455078	     -3.09623589	     -8.35878109	    -52.98276232	     17.85776231	      0.40567083	      0.00000000	    -16.74087401	      2.65241812	     12.55235521	     -7.27887769	     17.72282776	     -3.70564596	      0.00000000	    -26.63502802	      1.63004373	     -5.27216822
      6.60500000	     13.70961307	      0.44793994	      5.50857083	      2.59446423	      0.94786604	     -0.25259007	      7.81678910	     -2.97997693	     -8.59617678	    -51.38766593	     18.36401568	      0.29377206	      0.00000000	    -17.26320488	      2.43514654	     12.63113008	     -7.04938506	     17.84320804	     -3.52764726	      0.00000000	    -26.79521562	      1.83683745	     -5.70894703
      6.61000000	     13.74491213	      0.38921533	      5.77002810	      2.59973857	      0.94776672	     -0.25276283	      8.04164017	     -2.85257408	     -8.73988001	    -49.73462207	     18.84711270	      0.27962077	      0.00000000	    -17.74350613	      2.23908848	     12.65126015	     -6.81726652	     17.97674493	     -3.40878604	      0.00000000	    -26.89940793	      2.02586426	     -6.04302407
      6.61500000	     13.68572863	      0.34372216	      5.94621684	      2.60502590	      0.94749945	     -0.25284759	      8.35974526	     -2.73792880	     -8.76728255	    -48.04309198	     19.30721599	      0.37859487	      0.00000000	    -18.12361030	      2.09419030	     12.63553953	     -6.59427234	     18.10911105	     -3.34036826	      0.00000000	    -26.89932611	      2.15949822	     -6.27997968
      6.62000000	     13.79132644	      0.31768966	      6.28058800	      2.61025024	      0.94742101	     -0.25301373	      8.41533077	     -2.63337927	     -8.95106827	    -46.21310831	     19.70286010	      0.38940406	      0.00000000	    -18.66198620	      1.89122743	     12.68950832	     -6.38823918	     18.23170162	     -3.17946255	      0.00000000	    -27.09914391	      2.34123526	     -6.70172165
      6.62500000	     13.77608982	      0.28921707	      6.47025494	      2.61555649	      0.94711796	     -0.25308456	      8.60043449	     -2.52999498	     -8.97316396	    -44.36033611	     20.09173293	      0.55853185	      0.00000000	    -19.08745907	      1.75124334	     12.67154950	     -6.17267654	     18.38331473	     -3.13169913	      0.00000000	    -27.14989675	      2.46174407	     -6.93003998
      6.63000000	     13.77681047	      0.27615152	      6.69273043	      2.62086784	      0.94681942	     -0.25313124	      8.71832112	     -2.43427363	     -8.99619509	    -42.42343438	     20.41536499	      0.73630339	      0.00000000	    -19.52571295	      1.60622492	     12.67370868	     -5.96395934	     18.50820366	     -3.03456549	      0.00000000	    -27.22168137	      2.57624493	     -7.22274501
      6.63500000	     13.92884119	      0.29172740	      6.97620661	      2.62613146	      0.94667112	     -0.25318750	      8.60986557	     -2.34666253	     -9.05685582	    -40.38200060	     20.66273214	      0.87909434	      0.00000000	    -20.12393459	      1.44337178	     12.72140830	     -5.75204073	     18.58972475	     -2.93059039	      0.00000000	    -27.47808912	      2.69917049	     -7.61382470
      6.64000000	     13.89143326	      0.30394320	      7.15111026	      2.63145891	      0.94622023	     -0.25317684	      8.70211804	     -2.27288597	     -8.98844360	    -38.33274570	     20.91764623	      1.12169020	      0.00000000	    -20.51288454	      1.34444530	     12.70040102	     -5.57689388	     18.73388955	     -2.87378733	      0.00000000	    -27.51636082	      2.76271946	     -7.82009981
      6.64500000	     14.00131725	      0.34564869	      7.40993494	      2.63676360	      0.94593727	     -0.25318144	      8.56352752	     -2.20988961	     -8.98056327	    -36.17911783	     21.06169415	      1.31873767	      0.00000000	    -21.05656428	      1.21548971	     12.73343804	     -5.40039809	     18.82216880	     -2.76208619	      0.00000000	    -27.72787066	      2.84734415	     -8.18732664
      6.65000000	     14.05484475	      0.40044558	      7.61200229	      2.64213116	      0.94551732	     -0.25314638	      8.46038940	     -2.16463428	     -8.89810686	    -33.99924534	     21.16903649	      1.55780090	      0.00000000	    -21.54724358	      1.12722538	     12.74161989	     -5.22784490	     18.93567225	     -2.69416954	      0.00000000	    -27.86956193	      2.88589750	     -8.46299297
      6.65500000	     14.01489803	      0.46825410	      7.78751138	      2.64754409	      0.94493250	     -0.25308476	      8.43137853	     -2.14402474	     -8.76379130	    -31.79941752	     21.23951475	      1.80826865	      0.00000000	    -21.92757068	      1.07525645	     12.74678416	     -5.09316899	     19.08147647	     -2.63012566	      0.00000000	    -27.90496739	      2.88765488	     -8.68167573
      6.66000000	     14.05747131	      0.56439318	      8.00778206	      2.65296564	      0.94441549	     -0.25303660	      8.25839290	     -2.14311298	     -8.64805268	    -29.54174301	     21.20710987	      2.01863594	      0.00000000	    -22.39509564	      1.01605111	     12.78254960	     -4.96368473	     19.20068505	     -2.53156003	      0.00000000	    -28.03533169	      2.89020655	     -8.99097782
